<svg version="1.1" id="Layer_1" xmlns="http://www.w3.org/2000/svg" xmlns:xlink="http://www.w3.org/1999/xlink" x="0px" y="0px" width="100%px" viewBox="0 0 1024 1024" enable-background="new 0 0 1024 1024" xml:space="preserve" height="100px" transform="rotate(0) scale(1, 1)">
<path fill="#ffb473" opacity="1.000000" stroke="none" d="&#10;M799.363281,177.889801 &#10;&#9;C802.021423,191.358154 803.281128,204.549118 804.514282,217.789963 &#10;&#9;C805.835754,231.979218 805.280396,246.069916 804.231506,260.150299 &#10;&#9;C802.527710,283.024048 799.244263,305.679047 792.246948,327.636749 &#10;&#9;C789.767578,335.417084 784.963989,341.198761 777.822876,345.403931 &#10;&#9;C752.735962,360.176910 725.730286,370.671082 698.743713,381.193085 &#10;&#9;C683.704773,387.056793 668.475098,392.431396 653.335876,398.038300 &#10;&#9;C652.440430,398.369904 651.298828,398.388672 650.628784,401.089905 &#10;&#9;C692.443115,393.987396 733.484619,385.779449 774.532959,379.410645 &#10;&#9;C776.187927,382.280792 775.104919,384.086212 774.415588,385.908173 &#10;&#9;C758.399414,428.245148 736.447937,467.329590 709.886475,503.907776 &#10;&#9;C703.079834,513.281372 693.189087,517.344788 682.649292,520.338684 &#10;&#9;C642.664246,531.697021 602.528015,542.538818 562.949585,555.284790 &#10;&#9;C548.384827,559.975220 533.881104,564.856079 519.370056,569.711426 &#10;&#9;C517.867126,570.214355 516.049988,570.440186 514.812073,573.402222 &#10;&#9;C567.833618,564.926819 620.223755,556.802002 673.128784,553.214172 &#10;&#9;C673.784363,556.275146 672.203796,557.478760 671.128784,558.854126 &#10;&#9;C652.515808,582.667786 631.738586,604.480835 609.820984,625.248474 &#10;&#9;C599.777771,634.764832 589.242126,643.709473 578.786926,652.759338 &#10;&#9;C570.761658,659.705872 560.934509,661.449219 551.175476,663.252197 &#10;&#9;C517.395813,669.492798 483.558258,675.419678 449.756256,681.540405 &#10;&#9;C448.049896,681.849365 446.134338,681.929260 443.629547,684.177063 &#10;&#9;C473.380188,685.216003 501.982239,687.424377 530.252380,691.873840 &#10;&#9;C530.928467,695.421387 528.273499,695.975159 526.667969,697.056335 &#10;&#9;C497.270081,716.854553 465.706451,732.608093 433.344757,746.861816 &#10;&#9;C399.628296,761.712158 364.917053,773.798279 329.472015,783.741821 &#10;&#9;C317.871307,786.996277 309.919128,793.714417 303.525452,803.928955 &#10;&#9;C289.390656,826.510925 274.760193,848.807068 258.716858,870.119873 &#10;&#9;C253.599991,876.917236 248.430756,883.735046 241.646988,888.948608 &#10;&#9;C237.658722,892.013611 233.437454,895.678955 227.685394,893.538574 &#10;&#9;C222.022217,891.431274 220.177475,887.424683 222.024292,881.032227 &#10;&#9;C223.035339,877.532593 224.458649,874.118286 226.013229,870.814758 &#10;&#9;C239.930939,841.239685 256.757294,813.225769 272.345734,784.545837 &#10;&#9;C277.169952,775.670227 282.880829,767.095093 284.134155,756.678040 &#10;&#9;C284.312500,755.195862 284.641571,753.709778 284.622345,752.229065 &#10;&#9;C283.814209,689.946777 299.244324,631.113464 322.438202,573.924622 &#10;&#9;C337.359375,537.133423 354.215973,501.308411 375.482819,467.686249 &#10;&#9;C377.085480,465.152435 378.761108,462.664825 380.381348,460.141968 &#10;&#9;C381.397125,458.560394 382.479889,456.897339 384.651398,457.362946 &#10;&#9;C386.623138,457.785736 386.803223,459.808563 387.199371,461.332428 &#10;&#9;C390.625244,474.511230 394.115540,487.676849 397.266785,500.922485 &#10;&#9;C400.185516,513.190979 402.716553,525.551758 405.397217,537.876526 &#10;&#9;C405.577301,538.704407 405.666534,539.521362 406.894318,540.063904 &#10;&#9;C408.856842,537.402100 408.519440,534.203186 408.578217,531.255737 &#10;&#9;C409.016724,509.267273 407.940063,487.313232 407.047821,465.349976 &#10;&#9;C406.561096,453.369629 406.500549,441.352661 406.797821,429.365845 &#10;&#9;C407.043274,419.469360 413.354004,412.171967 418.826599,404.624329 &#10;&#9;C445.497772,367.840454 475.154541,333.677826 508.461945,302.739319 &#10;&#9;C518.716736,293.213898 529.346313,284.113525 540.484558,275.618500 &#10;&#9;C546.463257,271.058624 548.382690,271.600281 548.955872,279.140625 &#10;&#9;C549.775513,289.921326 550.027954,300.753357 550.254822,311.569122 &#10;&#9;C550.656433,330.721222 550.850830,349.877655 551.149292,369.032013 &#10;&#9;C551.181763,371.112152 551.328857,373.190521 552.460449,375.361755 &#10;&#9;C554.841675,363.575378 557.481812,351.834229 559.547668,339.992859 &#10;&#9;C563.339355,318.259583 566.911133,296.485840 570.331665,274.690796 &#10;&#9;C571.823914,265.182281 572.903076,255.618073 575.679810,246.354889 &#10;&#9;C576.770142,242.717438 578.558777,239.635330 581.840881,237.569962 &#10;&#9;C619.180054,214.072906 655.080811,188.228821 694.912354,168.806061 &#10;&#9;C721.426514,155.877151 748.349487,143.976303 776.361267,134.643021 &#10;&#9;C784.598938,131.898285 784.945007,131.969528 788.408325,139.712143 &#10;&#9;C793.805359,151.777969 796.564514,164.625397 799.363281,177.889801 &#10;M629.600281,321.098236 &#10;&#9;C610.787781,340.221985 592.621155,359.940369 574.811768,380.003021 &#10;&#9;C545.496033,413.027924 517.564148,447.192474 490.558868,482.109558 &#10;&#9;C458.754333,523.231995 429.746704,566.353516 400.274048,609.146851 &#10;&#9;C372.681213,649.210754 345.661407,689.619690 321.140900,731.662720 &#10;&#9;C312.992584,745.633911 306.747833,760.434143 301.105316,775.637024 &#10;&#9;C308.908905,767.015930 317.017914,758.596924 323.500641,749.071228 &#10;&#9;C341.206909,723.053589 358.723145,696.905396 376.439362,670.890808 &#10;&#9;C409.248047,622.714478 443.351349,575.464722 478.127075,528.708008 &#10;&#9;C517.178467,476.202515 557.478149,424.652557 598.635010,373.774384 &#10;&#9;C628.796143,336.489227 659.092651,299.322968 691.178772,263.656830 &#10;&#9;C692.408813,262.289551 694.071472,261.034637 694.204651,257.511536 &#10;&#9;C671.535767,278.340210 650.810425,299.461548 629.600281,321.098236 &#10;z"/>
</svg>